<mxfile host="65bd71144e">
    <diagram id="Bf-jQqQF3W5Bvj8kha3I" name="第 1 页">
        <mxGraphModel dx="667" dy="509" grid="1" gridSize="10" guides="1" tooltips="1" connect="1" arrows="1" fold="1" page="1" pageScale="1" pageWidth="827" pageHeight="1169" math="0" shadow="0">
            <root>
                <mxCell id="0"/>
                <mxCell id="1" parent="0"/>
                <mxCell id="4" value="targetMap" style="rounded=0;whiteSpace=wrap;html=1;" vertex="1" parent="1">
                    <mxGeometry x="290" y="40" width="120" height="60" as="geometry"/>
                </mxCell>
                <mxCell id="5" value="响应式对象的数据源" style="rounded=0;whiteSpace=wrap;html=1;" vertex="1" parent="1">
                    <mxGeometry x="70" y="210" width="120" height="60" as="geometry"/>
                </mxCell>
                <mxCell id="6" value="Map" style="rounded=0;whiteSpace=wrap;html=1;" vertex="1" parent="1">
                    <mxGeometry x="510" y="210" width="120" height="60" as="geometry"/>
                </mxCell>
                <mxCell id="10" value="" style="shape=singleArrow;direction=west;whiteSpace=wrap;html=1;rotation=-40;" vertex="1" parent="1">
                    <mxGeometry x="160" y="120" width="100" height="60" as="geometry"/>
                </mxCell>
                <mxCell id="11" value="" style="shape=singleArrow;whiteSpace=wrap;html=1;rotation=45;" vertex="1" parent="1">
                    <mxGeometry x="450" y="120" width="100" height="60" as="geometry"/>
                </mxCell>
                <mxCell id="13" value="name" style="rounded=0;whiteSpace=wrap;html=1;" vertex="1" parent="1">
                    <mxGeometry x="390" y="330" width="120" height="60" as="geometry"/>
                </mxCell>
                <mxCell id="14" value="&lt;br&gt;Set" style="rounded=0;whiteSpace=wrap;html=1;" vertex="1" parent="1">
                    <mxGeometry x="630" y="330" width="120" height="60" as="geometry"/>
                </mxCell>
                <mxCell id="15" value="" style="endArrow=classic;html=1;" edge="1" parent="1">
                    <mxGeometry width="50" height="50" relative="1" as="geometry">
                        <mxPoint x="490" y="260" as="sourcePoint"/>
                        <mxPoint x="420" y="320" as="targetPoint"/>
                    </mxGeometry>
                </mxCell>
                <mxCell id="16" value="" style="endArrow=classic;html=1;" edge="1" parent="1">
                    <mxGeometry width="50" height="50" relative="1" as="geometry">
                        <mxPoint x="650" y="270" as="sourcePoint"/>
                        <mxPoint x="690" y="320" as="targetPoint"/>
                    </mxGeometry>
                </mxCell>
                <mxCell id="17" value="key" style="text;html=1;align=center;verticalAlign=middle;resizable=0;points=[];autosize=1;strokeColor=none;fillColor=none;" vertex="1" parent="1">
                    <mxGeometry x="394" y="270" width="40" height="30" as="geometry"/>
                </mxCell>
                <mxCell id="18" value="value" style="text;html=1;align=center;verticalAlign=middle;resizable=0;points=[];autosize=1;strokeColor=none;fillColor=none;" vertex="1" parent="1">
                    <mxGeometry x="675" y="265" width="50" height="30" as="geometry"/>
                </mxCell>
                <mxCell id="19" value="里面存放着要执行的函数依赖" style="rounded=0;whiteSpace=wrap;html=1;" vertex="1" parent="1">
                    <mxGeometry x="560" y="440" width="120" height="60" as="geometry"/>
                </mxCell>
                <mxCell id="20" value="" style="endArrow=classic;html=1;entryX=0.25;entryY=0;entryDx=0;entryDy=0;" edge="1" parent="1" target="19">
                    <mxGeometry width="50" height="50" relative="1" as="geometry">
                        <mxPoint x="630" y="400" as="sourcePoint"/>
                        <mxPoint x="520" y="460" as="targetPoint"/>
                    </mxGeometry>
                </mxCell>
            </root>
        </mxGraphModel>
    </diagram>
</mxfile>
